<?xml version="1.0" encoding="UTF-8"?>
<svg xmlns="http://www.w3.org/2000/svg" viewBox="9.55 7.62 97.34 89.37" width="97.34mm" height="89.37mm">
  <defs>
    <!-- Main gradient: subtle, lighter top-right to deeper bottom-left -->
    <linearGradient id="grad-main" x1="90%" y1="0%" x2="10%" y2="100%">
      <stop offset="0%" stop-color="#561063"/>
      <stop offset="100%" stop-color="#460a55"/>
    </linearGradient>

    <!-- Highlight overlay: soft light from top-right -->
    <linearGradient id="grad-highlight" x1="80%" y1="0%" x2="20%" y2="100%">
      <stop offset="0%" stop-color="white" stop-opacity="0.10"/>
      <stop offset="40%" stop-color="white" stop-opacity="0.016"/>
      <stop offset="100%" stop-color="black" stop-opacity="0.064"/>
    </linearGradient>

    <!-- Short, tight drop shadow -->
    <filter id="shadow" x="-4%" y="-3%" width="112%" height="112%">
      <feDropShadow dx="0.4" dy="0.9" stdDeviation="1.2" flood-color="#1a0024" flood-opacity="0.36"/>
    </filter>
  </defs>

  <g transform="translate(-33.476177,-22.491808)">
    <!-- Base shape with gradient and shadow -->
    <g filter="url(#shadow)">
      <!-- Main bubble body -->
      <path fill="url(#grad-main)" d="m 98.480703,32.661887 c -30.726336,0.597216 -52.022542,22.198386 -52.272494,40.506784 -0.195272,14.303125 4.952902,20.403884 15.42552,29.007619 l 6.13237,15.81638 36.121771,-56.527418 c 0,0 2.01316,-4.094738 7.55658,-2.796877 l 5.55754,37.287721 C 130.73463,86.140753 137.41091,74.628442 137.09133,64.102633 137.09126,46.849641 125.5835,32.1351 98.480703,32.661887 Z"/>
      <!-- Right leg fill -->
      <path fill="url(#grad-main)" d="M 99.616178,84.759027 88.88798,104.69593 c 6.149885,0.14826 12.35754,-1.44339 18.37572,-3.94198 l -0.002,-15.889254 c -3e-5,-0.239854 -0.15952,-0.364115 -0.32136,-0.363057 l -6.983289,0.04567 c -0.13375,8.75e-4 -0.340873,0.07796 -0.340873,0.211716 z"/>
      <!-- Counter dot: flat, matching base color -->
      <path fill="#4b0856" d="m 105.31412,74.805437 c -0.39064,0.179009 -2.54678,1.671779 -2.48303,3.153288 0.0176,0.429863 0.094,0.583056 0.27148,0.808729 0.60938,0.774968 2.67268,1.033285 3.81614,0.551729 0.27855,-0.117302 0.48494,-0.266759 0.54759,-0.71804 0.17447,-1.257075 -0.18199,-3.175538 -1.16659,-3.775813 -0.37248,-0.20411 -0.70766,-0.147255 -0.98559,-0.01989 z"/>
    </g>

    <!-- Highlight overlay pass -->
    <path fill="url(#grad-highlight)" d="m 98.480703,32.661887 c -30.726336,0.597216 -52.022542,22.198386 -52.272494,40.506784 -0.195272,14.303125 4.952902,20.403884 15.42552,29.007619 l 6.13237,15.81638 36.121771,-56.527418 c 0,0 2.01316,-4.094738 7.55658,-2.796877 l 5.55754,37.287721 C 130.73463,86.140753 137.41091,74.628442 137.09133,64.102633 137.09126,46.849641 125.5835,32.1351 98.480703,32.661887 Z"/>
    <path fill="url(#grad-highlight)" d="M 99.616178,84.759027 88.88798,104.69593 c 6.149885,0.14826 12.35754,-1.44339 18.37572,-3.94198 l -0.002,-15.889254 c -3e-5,-0.239854 -0.15952,-0.364115 -0.32136,-0.363057 l -6.983289,0.04567 c -0.13375,8.75e-4 -0.340873,0.07796 -0.340873,0.211716 z"/>
  </g>
</svg>
