<?xml version="1.0" encoding="UTF-8"?>
<!--
  Browser favicon: white glyph on transparent. Renders correctly on
  both light and dark browser chrome / OS status bars. For the PWA
  install icon (home screen, app switcher), see icon-192.png /
  icon-512.png which sit on the brand gradient.
-->
<svg xmlns="http://www.w3.org/2000/svg" viewBox="9.55 7.62 97.34 89.37">
  <g transform="translate(-33.476177,-22.491808)">
    <!-- Main bubble body -->
    <path fill="#FFFFFF" d="m 98.480703,32.661887 c -30.726336,0.597216 -52.022542,22.198386 -52.272494,40.506784 -0.195272,14.303125 4.952902,20.403884 15.42552,29.007619 l 6.13237,15.81638 36.121771,-56.527418 c 0,0 2.01316,-4.094738 7.55658,-2.796877 l 5.55754,37.287721 C 130.73463,86.140753 137.41091,74.628442 137.09133,64.102633 137.09126,46.849641 125.5835,32.1351 98.480703,32.661887 Z"/>
    <!-- Right leg -->
    <path fill="#FFFFFF" d="M 99.616178,84.759027 88.88798,104.69593 c 6.149885,0.14826 12.35754,-1.44339 18.37572,-3.94198 l -0.002,-15.889254 c -3e-5,-0.239854 -0.15952,-0.364115 -0.32136,-0.363057 l -6.983289,0.04567 c -0.13375,8.75e-4 -0.340873,0.07796 -0.340873,0.211716 z"/>
  </g>
</svg>
